<mxfile host="65bd71144e">
    <diagram id="bxJqmcAA1n49yRWCh9Xo" name="Page-1">
        <mxGraphModel dx="1858" dy="808" grid="0" gridSize="10" guides="1" tooltips="1" connect="1" arrows="1" fold="1" page="1" pageScale="1" pageWidth="1169" pageHeight="827" background="#ffffff" math="0" shadow="0">
            <root>
                <mxCell id="0"/>
                <mxCell id="1" parent="0"/>
                <mxCell id="16" value="" style="rounded=1;whiteSpace=wrap;html=1;fillColor=none;strokeColor=#000099;strokeWidth=3;fontColor=#000000;fontSize=15;fontFamily=Helvetica;" parent="1" vertex="1">
                    <mxGeometry x="194" y="68" width="939" height="614" as="geometry"/>
                </mxCell>
                <mxCell id="20" value="" style="rounded=1;whiteSpace=wrap;html=1;strokeColor=#000000;strokeWidth=2;fillColor=#E6A8B2;dashed=1;fontColor=#000000;fontSize=15;fontFamily=Helvetica;" parent="1" vertex="1">
                    <mxGeometry x="869" y="276" width="236" height="88" as="geometry"/>
                </mxCell>
                <mxCell id="19" value="" style="rounded=1;whiteSpace=wrap;html=1;strokeColor=#000000;strokeWidth=2;fillColor=#93DE8E;dashed=1;fontColor=#000000;fontSize=15;fontFamily=Helvetica;" parent="1" vertex="1">
                    <mxGeometry x="855" y="131" width="230" height="76" as="geometry"/>
                </mxCell>
                <mxCell id="18" value="" style="rounded=1;whiteSpace=wrap;html=1;strokeColor=#000000;strokeWidth=2;fillColor=#66FFFF;dashed=1;fontColor=#000000;fontSize=15;fontFamily=Helvetica;" parent="1" vertex="1">
                    <mxGeometry x="224" y="106" width="604" height="559" as="geometry"/>
                </mxCell>
                <mxCell id="29" value="" style="rounded=1;whiteSpace=wrap;html=1;strokeColor=#000000;strokeWidth=2;fillColor=none;dashed=1;fontColor=#000000;fontSize=15;fontFamily=Helvetica;" parent="1" vertex="1">
                    <mxGeometry x="240" y="228" width="371" height="221" as="geometry"/>
                </mxCell>
                <mxCell id="30" value="" style="rounded=1;whiteSpace=wrap;html=1;strokeColor=#000000;strokeWidth=2;fillColor=none;dashed=1;fontColor=#000000;fontSize=15;fontFamily=Helvetica;" parent="1" vertex="1">
                    <mxGeometry x="255" y="271" width="321" height="166" as="geometry"/>
                </mxCell>
                <mxCell id="37" value="" style="rounded=1;whiteSpace=wrap;html=1;strokeColor=#000000;strokeWidth=2;fillColor=none;dashed=1;fontColor=#000000;fontSize=15;fontFamily=Helvetica;" parent="1" vertex="1">
                    <mxGeometry x="276" y="314.5" width="275" height="107" as="geometry"/>
                </mxCell>
                <mxCell id="17" value="" style="sketch=0;aspect=fixed;html=1;points=[];align=center;image;fontSize=15;image=img/lib/mscae/Kubernetes.svg;strokeColor=#000000;strokeWidth=3;fillColor=none;fontColor=#000000;fontFamily=Helvetica;" parent="1" vertex="1">
                    <mxGeometry x="816" y="28" width="50" height="48" as="geometry"/>
                </mxCell>
                <mxCell id="21" value="" style="sketch=0;html=1;dashed=0;whitespace=wrap;fillColor=#2875E2;strokeColor=#ffffff;points=[[0.005,0.63,0],[0.1,0.2,0],[0.9,0.2,0],[0.5,0,0],[0.995,0.63,0],[0.72,0.99,0],[0.5,1,0],[0.28,0.99,0]];verticalLabelPosition=bottom;align=center;verticalAlign=top;shape=mxgraph.kubernetes.icon;prIcon=ns;strokeWidth=2;fontColor=#000000;fontSize=15;fontFamily=Helvetica;" parent="1" vertex="1">
                    <mxGeometry x="266" y="80" width="50" height="48" as="geometry"/>
                </mxCell>
                <mxCell id="22" value="" style="sketch=0;html=1;dashed=0;whitespace=wrap;fillColor=#2875E2;strokeColor=#ffffff;points=[[0.005,0.63,0],[0.1,0.2,0],[0.9,0.2,0],[0.5,0,0],[0.995,0.63,0],[0.72,0.99,0],[0.5,1,0],[0.28,0.99,0]];verticalLabelPosition=bottom;align=center;verticalAlign=top;shape=mxgraph.kubernetes.icon;prIcon=ns;strokeWidth=2;fontColor=#000000;fontSize=15;fontFamily=Helvetica;" parent="1" vertex="1">
                    <mxGeometry x="874" y="102" width="50" height="48" as="geometry"/>
                </mxCell>
                <mxCell id="23" value="" style="sketch=0;html=1;dashed=0;whitespace=wrap;fillColor=#2875E2;strokeColor=#ffffff;points=[[0.005,0.63,0],[0.1,0.2,0],[0.9,0.2,0],[0.5,0,0],[0.995,0.63,0],[0.72,0.99,0],[0.5,1,0],[0.28,0.99,0]];verticalLabelPosition=bottom;align=center;verticalAlign=top;shape=mxgraph.kubernetes.icon;prIcon=ns;strokeWidth=2;fontColor=#000000;fontSize=15;fontFamily=Helvetica;" parent="1" vertex="1">
                    <mxGeometry x="887" y="249" width="50" height="48" as="geometry"/>
                </mxCell>
                <mxCell id="46" style="edgeStyle=none;html=1;fontSize=15;fontColor=#000000;strokeColor=#000000;strokeWidth=3;endArrow=classic;endFill=0;startArrow=none;startFill=0;entryX=0.5;entryY=0;entryDx=0;entryDy=0;entryPerimeter=0;fontFamily=Helvetica;" edge="1" parent="1" source="24" target="26">
                    <mxGeometry relative="1" as="geometry">
                        <mxPoint x="636" y="354" as="targetPoint"/>
                        <Array as="points">
                            <mxPoint x="392" y="158"/>
                        </Array>
                    </mxGeometry>
                </mxCell>
                <mxCell id="59" style="edgeStyle=none;html=1;entryX=0.995;entryY=0.63;entryDx=0;entryDy=0;entryPerimeter=0;strokeColor=#000000;strokeWidth=3;fontSize=15;fontColor=#000000;startArrow=classic;startFill=0;endArrow=none;endFill=0;fontFamily=Helvetica;" edge="1" parent="1" source="24" target="55">
                    <mxGeometry relative="1" as="geometry">
                        <Array as="points">
                            <mxPoint x="744" y="158"/>
                            <mxPoint x="744" y="449"/>
                        </Array>
                    </mxGeometry>
                </mxCell>
                <mxCell id="75" value="&lt;span style=&quot;background-color: rgb(255, 255, 255); font-size: 15px;&quot;&gt;TLS Certificate&lt;/span&gt;" style="edgeLabel;html=1;align=left;verticalAlign=middle;resizable=0;points=[];fontSize=15;fontColor=#000000;fontFamily=Helvetica;" vertex="1" connectable="0" parent="59">
                    <mxGeometry x="0.0942" y="-1" relative="1" as="geometry">
                        <mxPoint x="-40" y="93" as="offset"/>
                    </mxGeometry>
                </mxCell>
                <mxCell id="24" value="" style="sketch=0;html=1;dashed=0;whitespace=wrap;fillColor=#2875E2;strokeColor=#ffffff;points=[[0.005,0.63,0],[0.1,0.2,0],[0.9,0.2,0],[0.5,0,0],[0.995,0.63,0],[0.72,0.99,0],[0.5,1,0],[0.28,0.99,0]];verticalLabelPosition=bottom;align=center;verticalAlign=top;shape=mxgraph.kubernetes.icon;prIcon=ing;strokeWidth=2;fontColor=#000000;fontSize=15;fontFamily=Helvetica;" parent="1" vertex="1">
                    <mxGeometry x="645" y="134" width="50" height="48" as="geometry"/>
                </mxCell>
                <mxCell id="26" value="" style="sketch=0;html=1;dashed=0;whitespace=wrap;fillColor=#2875E2;strokeColor=#ffffff;points=[[0.005,0.63,0],[0.1,0.2,0],[0.9,0.2,0],[0.5,0,0],[0.995,0.63,0],[0.72,0.99,0],[0.5,1,0],[0.28,0.99,0]];verticalLabelPosition=bottom;align=center;verticalAlign=top;shape=mxgraph.kubernetes.icon;prIcon=svc;strokeWidth=2;fontColor=#000000;fontSize=15;fontFamily=Helvetica;" parent="1" vertex="1">
                    <mxGeometry x="367" y="201" width="50" height="48" as="geometry"/>
                </mxCell>
                <mxCell id="25" value="" style="sketch=0;html=1;dashed=0;whitespace=wrap;fillColor=#2875E2;strokeColor=#ffffff;points=[[0.005,0.63,0],[0.1,0.2,0],[0.9,0.2,0],[0.5,0,0],[0.995,0.63,0],[0.72,0.99,0],[0.5,1,0],[0.28,0.99,0]];verticalLabelPosition=bottom;align=center;verticalAlign=top;shape=mxgraph.kubernetes.icon;prIcon=hpa;strokeWidth=2;fontColor=#000000;fontSize=15;fontFamily=Helvetica;" parent="1" vertex="1">
                    <mxGeometry x="321" y="245" width="50" height="48" as="geometry"/>
                </mxCell>
                <mxCell id="62" style="edgeStyle=none;html=1;entryX=0.005;entryY=0.63;entryDx=0;entryDy=0;entryPerimeter=0;strokeColor=#000000;strokeWidth=3;fontSize=15;fontColor=#000000;startArrow=none;startFill=0;endArrow=classic;endFill=1;fontFamily=Helvetica;" edge="1" parent="1" source="31" target="33">
                    <mxGeometry relative="1" as="geometry">
                        <Array as="points">
                            <mxPoint x="289" y="372"/>
                        </Array>
                    </mxGeometry>
                </mxCell>
                <mxCell id="31" value="" style="sketch=0;html=1;dashed=0;whitespace=wrap;fillColor=#2875E2;strokeColor=#ffffff;points=[[0.005,0.63,0],[0.1,0.2,0],[0.9,0.2,0],[0.5,0,0],[0.995,0.63,0],[0.72,0.99,0],[0.5,1,0],[0.28,0.99,0]];verticalLabelPosition=bottom;align=center;verticalAlign=top;shape=mxgraph.kubernetes.icon;prIcon=cm;strokeWidth=2;fontColor=#000000;fontSize=15;fontFamily=Helvetica;" parent="1" vertex="1">
                    <mxGeometry x="266" y="461" width="50" height="48" as="geometry"/>
                </mxCell>
                <mxCell id="61" style="edgeStyle=none;html=1;entryX=0.5;entryY=1;entryDx=0;entryDy=0;entryPerimeter=0;strokeColor=#000000;strokeWidth=3;fontSize=15;fontColor=#000000;startArrow=none;startFill=0;endArrow=classic;endFill=1;fontFamily=Helvetica;" edge="1" parent="1" source="32" target="55">
                    <mxGeometry relative="1" as="geometry"/>
                </mxCell>
                <mxCell id="68" style="edgeStyle=none;html=1;strokeColor=#000000;strokeWidth=3;fontSize=15;fontColor=#000000;startArrow=none;startFill=0;endArrow=classic;endFill=1;fontFamily=Helvetica;" edge="1" parent="1" source="32" target="64">
                    <mxGeometry relative="1" as="geometry"/>
                </mxCell>
                <mxCell id="32" value="" style="sketch=0;html=1;dashed=0;whitespace=wrap;fillColor=#2875E2;strokeColor=#ffffff;points=[[0.005,0.63,0],[0.1,0.2,0],[0.9,0.2,0],[0.5,0,0],[0.995,0.63,0],[0.72,0.99,0],[0.5,1,0],[0.28,0.99,0]];verticalLabelPosition=bottom;align=center;verticalAlign=top;shape=mxgraph.kubernetes.icon;prIcon=crd;strokeWidth=2;fontColor=#000000;fontSize=15;fontFamily=Helvetica;" parent="1" vertex="1">
                    <mxGeometry x="637" y="537" width="50" height="48" as="geometry"/>
                </mxCell>
                <mxCell id="71" style="edgeStyle=none;html=1;exitX=0.995;exitY=0.63;exitDx=0;exitDy=0;exitPerimeter=0;entryX=0.5;entryY=0;entryDx=0;entryDy=0;entryPerimeter=0;strokeColor=#000000;strokeWidth=3;fontSize=15;fontColor=#000000;startArrow=none;startFill=0;endArrow=classic;endFill=1;fontFamily=Helvetica;" edge="1" parent="1" source="33" target="70">
                    <mxGeometry relative="1" as="geometry">
                        <Array as="points">
                            <mxPoint x="530" y="372"/>
                        </Array>
                    </mxGeometry>
                </mxCell>
                <mxCell id="33" value="" style="sketch=0;html=1;dashed=0;whitespace=wrap;fillColor=#2875E2;strokeColor=#ffffff;points=[[0.005,0.63,0],[0.1,0.2,0],[0.9,0.2,0],[0.5,0,0],[0.995,0.63,0],[0.72,0.99,0],[0.5,1,0],[0.28,0.99,0]];verticalLabelPosition=bottom;align=center;verticalAlign=top;shape=mxgraph.kubernetes.icon;prIcon=pod;strokeWidth=2;fontColor=#000000;fontSize=15;fontFamily=Helvetica;" parent="1" vertex="1">
                    <mxGeometry x="390.5" y="342" width="50" height="48" as="geometry"/>
                </mxCell>
                <mxCell id="63" style="edgeStyle=none;html=1;exitX=0.5;exitY=0;exitDx=0;exitDy=0;exitPerimeter=0;entryX=0.28;entryY=0.99;entryDx=0;entryDy=0;entryPerimeter=0;strokeColor=#000000;strokeWidth=3;fontSize=15;fontColor=#000000;startArrow=none;startFill=0;endArrow=classic;endFill=1;fontFamily=Helvetica;" edge="1" parent="1" source="34" target="33">
                    <mxGeometry relative="1" as="geometry"/>
                </mxCell>
                <mxCell id="34" value="" style="sketch=0;html=1;dashed=0;whitespace=wrap;fillColor=#2875E2;strokeColor=#ffffff;points=[[0.005,0.63,0],[0.1,0.2,0],[0.9,0.2,0],[0.5,0,0],[0.995,0.63,0],[0.72,0.99,0],[0.5,1,0],[0.28,0.99,0]];verticalLabelPosition=bottom;align=center;verticalAlign=top;shape=mxgraph.kubernetes.icon;prIcon=secret;strokeWidth=2;fontColor=#000000;fontSize=15;fontFamily=Helvetica;" parent="1" vertex="1">
                    <mxGeometry x="379" y="461" width="50" height="48" as="geometry"/>
                </mxCell>
                <mxCell id="67" style="edgeStyle=none;html=1;strokeColor=#000000;strokeWidth=3;fontSize=15;fontColor=#000000;startArrow=none;startFill=0;endArrow=classic;endFill=1;exitX=0.5;exitY=1;exitDx=0;exitDy=0;exitPerimeter=0;fontFamily=Helvetica;" edge="1" parent="1" source="36" target="66">
                    <mxGeometry relative="1" as="geometry">
                        <Array as="points"/>
                    </mxGeometry>
                </mxCell>
                <mxCell id="36" value="" style="sketch=0;html=1;dashed=0;whitespace=wrap;fillColor=#2875E2;strokeColor=#ffffff;points=[[0.005,0.63,0],[0.1,0.2,0],[0.9,0.2,0],[0.5,0,0],[0.995,0.63,0],[0.72,0.99,0],[0.5,1,0],[0.28,0.99,0]];verticalLabelPosition=bottom;align=center;verticalAlign=top;shape=mxgraph.kubernetes.icon;prIcon=job;strokeWidth=2;fontColor=#000000;fontSize=15;fontFamily=Helvetica;" parent="1" vertex="1">
                    <mxGeometry x="418" y="569" width="50" height="48" as="geometry"/>
                </mxCell>
                <mxCell id="35" value="" style="sketch=0;html=1;dashed=0;whitespace=wrap;fillColor=#2875E2;strokeColor=#ffffff;points=[[0.005,0.63,0],[0.1,0.2,0],[0.9,0.2,0],[0.5,0,0],[0.995,0.63,0],[0.72,0.99,0],[0.5,1,0],[0.28,0.99,0]];verticalLabelPosition=bottom;align=center;verticalAlign=top;shape=mxgraph.kubernetes.icon;prIcon=rs;strokeWidth=2;fontColor=#000000;fontSize=15;fontFamily=Helvetica;" parent="1" vertex="1">
                    <mxGeometry x="282" y="285.5" width="50" height="48" as="geometry"/>
                </mxCell>
                <mxCell id="39" value="&lt;font style=&quot;font-size: 15px;&quot;&gt;&lt;b style=&quot;font-size: 15px;&quot;&gt;DigitalOcean Kebernetes Cluster&lt;/b&gt;&lt;/font&gt;" style="text;html=1;align=center;verticalAlign=middle;resizable=0;points=[];autosize=1;strokeColor=none;fillColor=none;fontColor=#000000;fontSize=15;fontFamily=Helvetica;" vertex="1" parent="1">
                    <mxGeometry x="860" y="34" width="251" height="30" as="geometry"/>
                </mxCell>
                <mxCell id="40" value="&lt;font style=&quot;font-size: 15px;&quot;&gt;&lt;b style=&quot;font-size: 15px;&quot;&gt;Namespace: django-app&lt;/b&gt;&lt;/font&gt;" style="text;html=1;align=center;verticalAlign=middle;resizable=0;points=[];autosize=1;strokeColor=none;fillColor=none;fontColor=#000000;fontSize=15;fontFamily=Helvetica;" vertex="1" parent="1">
                    <mxGeometry x="304" y="103" width="191" height="30" as="geometry"/>
                </mxCell>
                <mxCell id="41" value="&lt;font style=&quot;font-size: 15px;&quot;&gt;&lt;b style=&quot;font-size: 15px;&quot;&gt;Ingress:&lt;br style=&quot;font-size: 15px;&quot;&gt;app-ingress&lt;/b&gt;&lt;/font&gt;" style="text;html=1;align=left;verticalAlign=middle;resizable=0;points=[];autosize=1;strokeColor=none;fillColor=none;fontColor=#000000;fontSize=15;fontFamily=Helvetica;" vertex="1" parent="1">
                    <mxGeometry x="635.5" y="174" width="103" height="48" as="geometry"/>
                </mxCell>
                <mxCell id="42" value="&lt;b style=&quot;font-size: 15px;&quot;&gt;Service:&amp;nbsp; public-app:8080&lt;/b&gt;" style="text;html=1;align=center;verticalAlign=middle;resizable=0;points=[];autosize=1;strokeColor=none;fillColor=none;fontColor=#000000;fontSize=15;fontFamily=Helvetica;" vertex="1" parent="1">
                    <mxGeometry x="401" y="229" width="199" height="30" as="geometry"/>
                </mxCell>
                <mxCell id="43" value="&lt;font style=&quot;font-size: 15px;&quot;&gt;&lt;b style=&quot;font-size: 15px;&quot;&gt;Deployment: sample-app&lt;/b&gt;&lt;/font&gt;" style="text;html=1;align=center;verticalAlign=middle;resizable=0;points=[];autosize=1;strokeColor=none;fillColor=none;fontColor=#000000;fontSize=15;fontFamily=Helvetica;" vertex="1" parent="1">
                    <mxGeometry x="315" y="310" width="196" height="30" as="geometry"/>
                </mxCell>
                <mxCell id="44" value="&lt;font style=&quot;font-size: 15px;&quot;&gt;&lt;b style=&quot;font-size: 15px;&quot;&gt;HPA: &lt;/b&gt;&lt;span style=&quot;font-size: 15px;&quot;&gt;&lt;b style=&quot;font-size: 15px;&quot;&gt;sample-app-scale&lt;/b&gt;&lt;/span&gt;&lt;br style=&quot;font-size: 15px;&quot;&gt;&lt;/font&gt;" style="text;html=1;align=center;verticalAlign=middle;resizable=0;points=[];autosize=1;strokeColor=none;fillColor=none;fontColor=#000000;fontSize=15;fontFamily=Helvetica;" vertex="1" parent="1">
                    <mxGeometry x="359" y="267" width="184" height="30" as="geometry"/>
                </mxCell>
                <mxCell id="45" value="" style="sketch=0;html=1;dashed=0;whitespace=wrap;fillColor=#2875E2;strokeColor=#ffffff;points=[[0.005,0.63,0],[0.1,0.2,0],[0.9,0.2,0],[0.5,0,0],[0.995,0.63,0],[0.72,0.99,0],[0.5,1,0],[0.28,0.99,0]];verticalLabelPosition=bottom;align=center;verticalAlign=top;shape=mxgraph.kubernetes.icon;prIcon=ep;fontSize=15;fontColor=#000000;fontFamily=Helvetica;" vertex="1" parent="1">
                    <mxGeometry x="587" y="269" width="50" height="48" as="geometry"/>
                </mxCell>
                <mxCell id="48" value="&lt;span style=&quot;font-size: 15px;&quot;&gt;&lt;b style=&quot;font-size: 15px;&quot;&gt;Pod:&lt;br style=&quot;font-size: 15px;&quot;&gt;sample-app&lt;/b&gt;&lt;/span&gt;" style="text;html=1;align=left;verticalAlign=middle;resizable=0;points=[];autosize=1;strokeColor=none;fillColor=none;fontColor=#000000;fontSize=15;fontFamily=Helvetica;" vertex="1" parent="1">
                    <mxGeometry x="445" y="331" width="101" height="48" as="geometry"/>
                </mxCell>
                <mxCell id="49" value="&lt;div style=&quot;text-align: left; font-size: 15px;&quot;&gt;&lt;b style=&quot;background-color: initial; font-size: 15px;&quot;&gt;Endpoints:&lt;/b&gt;&lt;/div&gt;&lt;font style=&quot;font-size: 15px;&quot;&gt;&lt;div style=&quot;text-align: left; font-size: 15px;&quot;&gt;&lt;b style=&quot;font-size: 15px; background-color: initial;&quot;&gt;public-app:8000&lt;/b&gt;&lt;/div&gt;&lt;/font&gt;" style="text;html=1;align=center;verticalAlign=middle;resizable=0;points=[];autosize=1;strokeColor=none;fillColor=none;fontColor=#000000;fontSize=15;fontFamily=Helvetica;" vertex="1" parent="1">
                    <mxGeometry x="605.5" y="309" width="132" height="48" as="geometry"/>
                </mxCell>
                <mxCell id="50" value="&lt;div style=&quot;text-align: left; font-size: 15px;&quot;&gt;&lt;b style=&quot;font-size: 15px; background-color: initial;&quot;&gt;Job:&lt;/b&gt;&lt;/div&gt;&lt;span style=&quot;font-size: 15px;&quot;&gt;&lt;b style=&quot;font-size: 15px;&quot;&gt;dyn-dns-update&lt;/b&gt;&lt;/span&gt;" style="text;html=1;align=center;verticalAlign=middle;resizable=0;points=[];autosize=1;strokeColor=none;fillColor=none;fontColor=#000000;fontSize=15;fontFamily=Helvetica;" vertex="1" parent="1">
                    <mxGeometry x="388.5" y="610" width="131" height="48" as="geometry"/>
                </mxCell>
                <mxCell id="85" style="edgeStyle=none;html=1;entryX=0.5;entryY=1;entryDx=0;entryDy=0;entryPerimeter=0;strokeColor=#000000;strokeWidth=3;fontSize=15;fontColor=#000000;startArrow=none;startFill=0;endArrow=classic;endFill=1;fontFamily=Helvetica;" edge="1" parent="1" source="51" target="78">
                    <mxGeometry relative="1" as="geometry">
                        <Array as="points">
                            <mxPoint x="139" y="599"/>
                        </Array>
                    </mxGeometry>
                </mxCell>
                <mxCell id="51" value="" style="sketch=0;html=1;dashed=0;whitespace=wrap;fillColor=#2875E2;strokeColor=#ffffff;points=[[0.005,0.63,0],[0.1,0.2,0],[0.9,0.2,0],[0.5,0,0],[0.995,0.63,0],[0.72,0.99,0],[0.5,1,0],[0.28,0.99,0]];verticalLabelPosition=bottom;align=center;verticalAlign=top;shape=mxgraph.kubernetes.icon;prIcon=job;strokeWidth=2;fontColor=#000000;fontSize=15;fontFamily=Helvetica;" vertex="1" parent="1">
                    <mxGeometry x="305" y="575" width="50" height="48" as="geometry"/>
                </mxCell>
                <mxCell id="52" value="&lt;div style=&quot;text-align: left; font-size: 15px;&quot;&gt;&lt;b style=&quot;font-size: 15px; background-color: initial;&quot;&gt;Job:&lt;/b&gt;&lt;/div&gt;&lt;span style=&quot;font-size: 15px;&quot;&gt;&lt;b style=&quot;font-size: 15px;&quot;&gt;dyn-dns-check&lt;/b&gt;&lt;/span&gt;" style="text;html=1;align=center;verticalAlign=middle;resizable=0;points=[];autosize=1;strokeColor=none;fillColor=none;fontColor=#000000;fontSize=15;fontFamily=Helvetica;" vertex="1" parent="1">
                    <mxGeometry x="265" y="605" width="124" height="48" as="geometry"/>
                </mxCell>
                <mxCell id="53" value="&lt;span style=&quot;font-size: 15px;&quot;&gt;&lt;b style=&quot;font-size: 15px;&quot;&gt;ConfigurationMap:&lt;br style=&quot;font-size: 15px;&quot;&gt;&lt;div style=&quot;text-align: left; font-size: 15px;&quot;&gt;&lt;b style=&quot;background-color: initial; font-size: 15px;&quot;&gt;django-app-conf&lt;/b&gt;&lt;/div&gt;&lt;/b&gt;&lt;/span&gt;" style="text;html=1;align=center;verticalAlign=middle;resizable=0;points=[];autosize=1;strokeColor=none;fillColor=none;fontColor=#000000;fontSize=15;fontFamily=Helvetica;" vertex="1" parent="1">
                    <mxGeometry x="241" y="504" width="151" height="48" as="geometry"/>
                </mxCell>
                <mxCell id="54" value="&lt;span style=&quot;font-size: 15px;&quot;&gt;&lt;b style=&quot;font-size: 15px;&quot;&gt;Secret:&lt;br style=&quot;font-size: 15px;&quot;&gt;db_connect&lt;br style=&quot;font-size: 15px;&quot;&gt;&lt;/b&gt;&lt;/span&gt;" style="text;html=1;align=left;verticalAlign=middle;resizable=0;points=[];autosize=1;strokeColor=none;fillColor=none;fontColor=#000000;fontSize=15;fontFamily=Helvetica;" vertex="1" parent="1">
                    <mxGeometry x="390.5" y="507" width="102" height="48" as="geometry"/>
                </mxCell>
                <mxCell id="55" value="" style="sketch=0;html=1;dashed=0;whitespace=wrap;fillColor=#2875E2;strokeColor=#ffffff;points=[[0.005,0.63,0],[0.1,0.2,0],[0.9,0.2,0],[0.5,0,0],[0.995,0.63,0],[0.72,0.99,0],[0.5,1,0],[0.28,0.99,0]];verticalLabelPosition=bottom;align=center;verticalAlign=top;shape=mxgraph.kubernetes.icon;prIcon=secret;strokeWidth=2;fontColor=#000000;fontSize=15;fontFamily=Helvetica;" vertex="1" parent="1">
                    <mxGeometry x="637" y="419" width="50" height="48" as="geometry"/>
                </mxCell>
                <mxCell id="56" value="&lt;span style=&quot;font-size: 15px;&quot;&gt;&lt;b style=&quot;font-size: 15px;&quot;&gt;Secret:&lt;br style=&quot;font-size: 15px;&quot;&gt;letsencrypt-prod-cert&lt;br style=&quot;font-size: 15px;&quot;&gt;&lt;/b&gt;&lt;/span&gt;" style="text;html=1;align=left;verticalAlign=middle;resizable=0;points=[];autosize=1;strokeColor=none;fillColor=none;fontColor=#000000;fontSize=15;fontFamily=Helvetica;" vertex="1" parent="1">
                    <mxGeometry x="679" y="453" width="169" height="48" as="geometry"/>
                </mxCell>
                <mxCell id="60" value="&lt;div style=&quot;text-align: left; font-size: 15px;&quot;&gt;&lt;span style=&quot;font-size: 15px;&quot;&gt;&lt;b style=&quot;font-size: 15px;&quot;&gt;CRD Issuer:&lt;/b&gt;&lt;/span&gt;&lt;/div&gt;&lt;div style=&quot;text-align: left; font-size: 15px;&quot;&gt;&lt;span style=&quot;font-size: 15px;&quot;&gt;&lt;b style=&quot;font-size: 15px;&quot;&gt;letsencrypt-prod&lt;/b&gt;&lt;/span&gt;&lt;/div&gt;" style="text;html=1;align=center;verticalAlign=middle;resizable=0;points=[];autosize=1;strokeColor=none;fillColor=none;fontColor=#000000;fontSize=15;fontFamily=Helvetica;" vertex="1" parent="1">
                    <mxGeometry x="677" y="553" width="136" height="48" as="geometry"/>
                </mxCell>
                <mxCell id="64" value="" style="sketch=0;outlineConnect=0;fontColor=#000000;gradientColor=none;fillColor=#BF0816;strokeColor=none;dashed=0;verticalLabelPosition=bottom;verticalAlign=top;align=center;html=1;fontSize=15;fontStyle=0;aspect=fixed;pointerEvents=1;shape=mxgraph.aws4.certificate_manager_2;fontFamily=Helvetica;" vertex="1" parent="1">
                    <mxGeometry x="626" y="705" width="78" height="72" as="geometry"/>
                </mxCell>
                <mxCell id="66" value="" style="aspect=fixed;html=1;points=[];align=center;image;fontSize=15;image=img/lib/azure2/networking/DNS_Zones.svg;fontColor=#000000;fillColor=#66FFFF;fontFamily=Helvetica;" vertex="1" parent="1">
                    <mxGeometry x="412" y="710" width="64" height="64" as="geometry"/>
                </mxCell>
                <mxCell id="70" value="" style="strokeWidth=2;html=1;shape=mxgraph.flowchart.database;whiteSpace=wrap;fontSize=15;fontColor=#000000;fillColor=#66FFFF;strokeColor=#0000CC;fontFamily=Helvetica;" vertex="1" parent="1">
                    <mxGeometry x="499" y="712" width="60" height="60" as="geometry"/>
                </mxCell>
                <mxCell id="72" value="&lt;div style=&quot;text-align: left; font-size: 15px;&quot;&gt;&lt;span style=&quot;font-size: 15px;&quot;&gt;&lt;b style=&quot;font-size: 15px;&quot;&gt;Lets Encrypt CA&lt;/b&gt;&lt;/span&gt;&lt;/div&gt;" style="text;html=1;align=center;verticalAlign=middle;resizable=0;points=[];autosize=1;strokeColor=none;fillColor=none;fontColor=#000000;fontSize=15;fontFamily=Helvetica;" vertex="1" parent="1">
                    <mxGeometry x="705" y="732" width="135" height="30" as="geometry"/>
                </mxCell>
                <mxCell id="73" value="&lt;div style=&quot;text-align: left; font-size: 15px;&quot;&gt;&lt;span style=&quot;font-size: 15px;&quot;&gt;&lt;b style=&quot;font-size: 15px;&quot;&gt;Namecheap&amp;nbsp;&lt;/b&gt;&lt;/span&gt;&lt;/div&gt;&lt;div style=&quot;text-align: left; font-size: 15px;&quot;&gt;&lt;span style=&quot;font-size: 15px;&quot;&gt;&lt;b style=&quot;font-size: 15px;&quot;&gt;Dynamic DNS&lt;/b&gt;&lt;/span&gt;&lt;/div&gt;&lt;div style=&quot;text-align: left; font-size: 15px;&quot;&gt;&lt;span style=&quot;font-size: 15px;&quot;&gt;&lt;b style=&quot;font-size: 15px;&quot;&gt;API&lt;/b&gt;&lt;/span&gt;&lt;/div&gt;" style="text;html=1;align=center;verticalAlign=middle;resizable=0;points=[];autosize=1;strokeColor=none;fillColor=none;fontColor=#000000;fontSize=15;fontFamily=Helvetica;" vertex="1" parent="1">
                    <mxGeometry x="294" y="718" width="116" height="66" as="geometry"/>
                </mxCell>
                <mxCell id="74" value="&lt;div style=&quot;text-align: left; font-size: 15px;&quot;&gt;&lt;span style=&quot;font-size: 15px;&quot;&gt;&lt;b style=&quot;font-size: 15px;&quot;&gt;DigitalOcean&lt;/b&gt;&lt;/span&gt;&lt;/div&gt;&lt;div style=&quot;text-align: left; font-size: 15px;&quot;&gt;&lt;span style=&quot;font-size: 15px;&quot;&gt;&lt;b style=&quot;font-size: 15px;&quot;&gt;Managed PostreSQL&lt;/b&gt;&lt;/span&gt;&lt;/div&gt;" style="text;html=1;align=center;verticalAlign=middle;resizable=0;points=[];autosize=1;strokeColor=none;fillColor=none;fontColor=#000000;fontSize=15;fontFamily=Helvetica;" vertex="1" parent="1">
                    <mxGeometry x="472" y="770" width="165" height="48" as="geometry"/>
                </mxCell>
                <mxCell id="80" style="edgeStyle=none;html=1;exitX=0.5;exitY=0;exitDx=0;exitDy=0;exitPerimeter=0;entryX=0.5;entryY=0;entryDx=0;entryDy=0;entryPerimeter=0;strokeColor=#000000;strokeWidth=3;fontSize=15;fontColor=#000000;startArrow=none;startFill=0;endArrow=classic;endFill=1;fontFamily=Helvetica;" edge="1" parent="1" source="78" target="24">
                    <mxGeometry relative="1" as="geometry">
                        <Array as="points">
                            <mxPoint x="139" y="38"/>
                            <mxPoint x="672" y="35"/>
                        </Array>
                    </mxGeometry>
                </mxCell>
                <mxCell id="78" value="" style="fillColor=#28A8E0;verticalLabelPosition=bottom;sketch=0;html=1;strokeColor=#ffffff;verticalAlign=top;align=center;points=[[0.145,0.145,0],[0.5,0,0],[0.855,0.145,0],[1,0.5,0],[0.855,0.855,0],[0.5,1,0],[0.145,0.855,0],[0,0.5,0]];pointerEvents=1;shape=mxgraph.cisco_safe.compositeIcon;bgIcon=ellipse;resIcon=mxgraph.cisco_safe.capability.load_balancer;labelBackgroundColor=#FFFFFF;fontSize=15;fontColor=#000000;fontFamily=Helvetica;" vertex="1" parent="1">
                    <mxGeometry x="107" y="338" width="63" height="63" as="geometry"/>
                </mxCell>
                <mxCell id="87" style="edgeStyle=none;html=1;entryX=0;entryY=0.5;entryDx=0;entryDy=0;entryPerimeter=0;strokeColor=#000000;strokeWidth=3;fontSize=15;fontColor=#000000;startArrow=none;startFill=0;endArrow=classic;endFill=1;fontFamily=Helvetica;" edge="1" parent="1" source="86" target="78">
                    <mxGeometry relative="1" as="geometry">
                        <Array as="points">
                            <mxPoint x="66" y="370"/>
                        </Array>
                    </mxGeometry>
                </mxCell>
                <mxCell id="86" value="" style="aspect=fixed;perimeter=ellipsePerimeter;html=1;align=center;shadow=0;dashed=0;spacingTop=3;image;image=img/lib/active_directory/laptop_client.svg;labelBackgroundColor=#FFFFFF;strokeColor=#0000CC;fontSize=15;fontColor=#000000;fillColor=#66FFFF;fontFamily=Helvetica;" vertex="1" parent="1">
                    <mxGeometry x="46" y="496" width="45" height="50" as="geometry"/>
                </mxCell>
                <mxCell id="88" value="&lt;font style=&quot;font-size: 15px;&quot;&gt;&lt;b style=&quot;font-size: 15px;&quot;&gt;Namespace: cert-masnager&lt;/b&gt;&lt;/font&gt;" style="text;html=1;align=center;verticalAlign=middle;resizable=0;points=[];autosize=1;strokeColor=none;fillColor=none;fontColor=#000000;fontSize=15;fontFamily=Helvetica;" vertex="1" parent="1">
                    <mxGeometry x="848" y="173" width="214" height="30" as="geometry"/>
                </mxCell>
                <mxCell id="89" value="&lt;font style=&quot;font-size: 15px;&quot;&gt;&lt;b style=&quot;font-size: 15px;&quot;&gt;Namespace: ingress-nginx&lt;/b&gt;&lt;/font&gt;" style="text;html=1;align=center;verticalAlign=middle;resizable=0;points=[];autosize=1;strokeColor=none;fillColor=none;fontColor=#000000;fontSize=15;fontFamily=Helvetica;" vertex="1" parent="1">
                    <mxGeometry x="862" y="332" width="209" height="30" as="geometry"/>
                </mxCell>
                <mxCell id="90" value="&lt;font style=&quot;font-size: 15px;&quot;&gt;&lt;b style=&quot;font-size: 15px;&quot;&gt;Digital Ocean&lt;br style=&quot;font-size: 15px;&quot;&gt;Load Balancer&amp;nbsp;&lt;br style=&quot;font-size: 15px;&quot;&gt;External IP&lt;br style=&quot;font-size: 15px;&quot;&gt;&lt;/b&gt;&lt;/font&gt;" style="text;html=1;align=center;verticalAlign=middle;resizable=0;points=[];autosize=1;strokeColor=none;fillColor=none;fontColor=#000000;fontSize=15;fontFamily=Helvetica;" vertex="1" parent="1">
                    <mxGeometry x="12" y="288" width="126" height="66" as="geometry"/>
                </mxCell>
                <mxCell id="92" value="&lt;span style=&quot;font-size: 15px;&quot;&gt;&lt;b style=&quot;font-size: 15px;&quot;&gt;week7.fedunets.uk -&amp;gt;&amp;nbsp;&lt;/b&gt;&lt;/span&gt;&lt;b style=&quot;font-size: 15px;&quot;&gt;&amp;nbsp; public-app:8080&lt;/b&gt;" style="text;html=1;align=center;verticalAlign=middle;resizable=0;points=[];autosize=1;strokeColor=none;fillColor=none;fontColor=#000000;fontSize=15;fontFamily=Helvetica;" vertex="1" parent="1">
                    <mxGeometry x="369" y="132" width="296" height="30" as="geometry"/>
                </mxCell>
            </root>
        </mxGraphModel>
    </diagram>
</mxfile>